# xmcd
#
# Track frame offsets:
#	150
#	15935
#	35763
#	52306
#	70253
#	87226
#	106317
#	124469
#	142546
#	161455
#	180416
#	197477
#	215632
#	233241
#	252210
#	269819
#	288390
#	303958
#
# Disc length: 4335 seconds
#
# Revision: 1
# Processed by: cddbd v1.4PL0 Copyright (c) Steve Scherf et al.
# Submitted via: EasyCDDAExtractor 5.0.6
#
DISCID=0310ed12
DTITLE=Various Artist - Merengue 2000
DYEAR=1900
DGENRE=Merengue
TTITLE0=juan luis guerra - Cuando me besa
TTITLE1=banda - Como Quiciera
TTITLE2=El Cocodrilo - Ahi Mamazota
TTITLE3=Pa Lo ondo - Amor a primera vista
TTITLE4=Mala Cosecha - Maria tormenta
TTITLE5=El boy from bonao - Tu Sabe?
TTITLE6=Soberbia - Los Envidioso
TTITLE7=Oro Blanco - Oro Blanco
TTITLE8=Oro Blanco - Los Cuerno
TTITLE9=Deskkontrolado - Pegate un chin
TTITLE10=nose - Cara Bonita
TTITLE11=Mnny Valens - Usted ta Loco Vecino
TTITLE12=Oro Duro - El Termometro
TTITLE13=Oro Duro - Remenea
TTITLE14=Oro Duro - El Termometro (Remix)
TTITLE15=La FBI - Ok Ok OK
TTITLE16=Geraldo - El Sozofon
TTITLE17=Karis - esa Nena
EXTD=
EXTT0=
EXTT1=
EXTT2=
EXTT3=
EXTT4=
EXTT5=
EXTT6=
EXTT7=
EXTT8=
EXTT9=
EXTT10=
EXTT11=
EXTT12=
EXTT13=
EXTT14=
EXTT15=
EXTT16=
EXTT17=
PLAYORDER=
